<svg xmlns="http://www.w3.org/2000/svg" width="154" height="36" viewBox="0 0 154 36">
    <g fill="none" fill-rule="evenodd">
        <path fill="#474345" d="M40.878 24.223c-.28-.288-.421-.708-.421-1.26V20.74h.41v2.208c0 .451.102.788.305 1.01.204.222.498.333.883.333.388 0 .684-.111.887-.333.204-.222.306-.559.306-1.01v-2.208h.399v2.225c0 .55-.14.97-.419 1.259-.28.289-.67.433-1.173.433s-.895-.144-1.177-.433M49.103 22.001c.217.213.325.522.325.93v1.691h-.394V22.97c0-.303-.076-.534-.227-.693-.152-.16-.368-.239-.65-.239-.314 0-.563.093-.746.28-.183.187-.274.445-.274.774v1.531h-.394v-2.918h.377v.538c.107-.177.256-.315.447-.413.19-.098.41-.147.663-.147.366 0 .657.106.873.319M53.894 24.187c.16-.102.277-.249.355-.441v-.477h-.915c-.5 0-.75.174-.75.521 0 .17.065.305.195.402.13.099.31.147.543.147.222 0 .413-.05.572-.152m.444-2.22c.203.191.305.473.305.847v1.808h-.377v-.455c-.089.152-.22.27-.391.356-.172.085-.377.127-.614.127-.325 0-.584-.078-.776-.233-.193-.155-.289-.36-.289-.615 0-.249.09-.448.27-.6.179-.151.464-.227.856-.227h.927v-.178c0-.251-.07-.443-.21-.574-.141-.131-.347-.197-.617-.197-.185 0-.362.03-.532.092-.17.06-.317.145-.438.252l-.178-.294c.148-.126.325-.223.533-.291.207-.069.425-.103.654-.103.381 0 .673.095.877.286M62.796 24.16c.164-.095.294-.23.388-.403.095-.174.142-.372.142-.594 0-.221-.047-.42-.142-.593-.094-.174-.224-.308-.388-.403-.165-.094-.349-.141-.552-.141-.208 0-.393.047-.558.141-.164.095-.294.229-.388.403-.095.174-.142.372-.142.593 0 .222.047.42.142.594.094.174.224.308.388.402.165.095.35.142.558.142.203 0 .387-.047.552-.142zm.918-3.654v4.116h-.377v-.576c-.119.195-.275.345-.47.449-.193.103-.412.155-.657.155-.273 0-.521-.063-.743-.188-.222-.126-.396-.302-.521-.527-.126-.226-.19-.483-.19-.772 0-.288.064-.545.19-.771.125-.225.3-.4.521-.524.222-.124.47-.186.743-.186.237 0 .45.049.641.147.19.098.347.241.47.43v-1.753h.393zM67.179 22.29c-.19.179-.299.413-.325.701h2.07c-.026-.288-.135-.522-.325-.702-.19-.179-.428-.268-.713-.268-.281 0-.517.09-.707.268zm2.117.995h-2.442c.022.304.139.549.35.735.21.187.477.28.799.28.181 0 .348-.032.499-.096.152-.065.283-.16.394-.286l.222.255c-.13.156-.291.274-.486.355-.194.082-.407.122-.64.122-.3 0-.566-.064-.796-.191-.232-.128-.412-.304-.541-.53-.13-.226-.195-.48-.195-.766 0-.285.062-.54.186-.765.124-.226.294-.401.51-.527.217-.126.46-.189.73-.189.27 0 .512.063.727.189.214.126.383.3.505.524.122.224.183.48.183.768l-.005.122zM72.15 24.548c-.217-.069-.386-.155-.508-.258l.177-.311c.123.096.276.175.461.236.185.06.377.091.577.091.266 0 .463-.042.59-.125.129-.083.192-.2.192-.352 0-.107-.035-.191-.105-.252-.07-.062-.159-.108-.266-.14-.108-.03-.25-.061-.427-.09-.237-.045-.428-.09-.572-.137-.144-.046-.267-.124-.369-.235-.102-.111-.153-.265-.153-.46 0-.245.102-.445.306-.6.203-.155.486-.233.849-.233.188 0 .377.025.565.075.19.05.344.115.466.197l-.171.316c-.241-.166-.527-.25-.86-.25-.252 0-.441.045-.57.134-.127.088-.19.205-.19.349 0 .111.035.2.108.267.072.066.162.115.269.146.107.032.255.064.444.097.233.045.42.09.56.134.14.044.26.12.36.227.1.107.15.255.15.444 0 .255-.106.458-.319.608-.212.15-.507.224-.884.224-.237 0-.464-.034-.68-.102M78.733 24.16c.166-.095.296-.23.39-.403.095-.174.142-.372.142-.594 0-.221-.047-.419-.141-.59-.095-.173-.225-.306-.391-.403-.167-.096-.352-.144-.555-.144-.208 0-.393.048-.558.144-.165.097-.294.23-.388.402-.095.172-.142.37-.142.591 0 .222.047.42.142.594.094.174.223.308.388.402.165.095.35.142.558.142.203 0 .388-.047.555-.142m.216-2.291c.222.124.396.299.521.524.126.226.189.483.189.771 0 .293-.063.552-.189.777-.125.226-.298.4-.518.524-.22.124-.47.186-.747.186-.236 0-.45-.049-.64-.147-.191-.098-.347-.241-.47-.43V25.7h-.393v-3.995h.377v.577c.119-.192.275-.34.469-.444.194-.103.413-.155.657-.155.274 0 .522.062.744.186M82.83 22.29c-.19.179-.299.413-.325.701h2.07c-.026-.288-.135-.522-.325-.702-.19-.179-.428-.268-.713-.268-.281 0-.517.09-.707.268zm2.117.995h-2.442c.022.304.139.549.35.735.21.187.477.28.799.28.181 0 .347-.032.499-.096.152-.065.283-.16.394-.286l.222.255c-.13.156-.291.274-.486.355-.194.082-.408.122-.64.122-.3 0-.566-.064-.796-.191-.232-.128-.412-.304-.542-.53-.129-.226-.194-.48-.194-.766 0-.285.062-.54.186-.765.124-.226.294-.401.51-.527.217-.126.46-.189.73-.189.27 0 .512.063.727.189.214.126.383.3.505.524.122.224.183.48.183.768l-.005.122zM90.059 22.001c.216.213.324.522.324.93v1.691h-.394V22.97c0-.303-.075-.534-.227-.693-.152-.16-.368-.239-.65-.239-.314 0-.562.093-.745.28-.184.187-.275.445-.275.774v1.531h-.394v-2.918h.377v.538c.108-.177.256-.315.447-.413.19-.098.411-.147.663-.147.366 0 .657.106.874.319M93.499 24.548c-.217-.069-.386-.155-.508-.258l.177-.311c.123.096.276.175.46.236.186.06.378.091.578.091.266 0 .463-.042.59-.125.129-.083.192-.2.192-.352 0-.107-.035-.191-.105-.252-.07-.062-.16-.108-.267-.14-.107-.03-.25-.061-.427-.09-.236-.045-.427-.09-.571-.137-.144-.046-.267-.124-.369-.235-.102-.111-.153-.265-.153-.46 0-.245.102-.445.305-.6.204-.155.487-.233.85-.233.188 0 .377.025.565.075.189.05.344.115.466.197l-.171.316c-.241-.166-.528-.25-.86-.25-.252 0-.442.045-.57.134-.127.088-.19.205-.19.349 0 .111.035.2.107.267.073.066.162.115.27.146.107.032.255.064.443.097.233.045.42.09.56.134.141.044.262.12.361.227.1.107.15.255.15.444 0 .255-.106.458-.319.608-.213.15-.508.224-.885.224-.237 0-.463-.034-.68-.102M99.504 24.187c.16-.102.278-.249.355-.441v-.477h-.915c-.5 0-.75.174-.75.521 0 .17.066.305.195.402.13.099.31.147.544.147.222 0 .412-.05.571-.152m.444-2.22c.203.191.305.473.305.847v1.808h-.377v-.455c-.089.152-.22.27-.391.356-.172.085-.376.127-.613.127-.326 0-.585-.078-.777-.233-.192-.155-.289-.36-.289-.615 0-.249.09-.448.27-.6.179-.151.465-.227.857-.227h.926v-.178c0-.251-.07-.443-.21-.574-.14-.131-.346-.197-.616-.197-.185 0-.363.03-.533.092-.17.06-.316.145-.438.252l-.178-.294c.148-.126.326-.223.533-.291.207-.069.425-.103.654-.103.382 0 .674.095.877.286M108.692 24.16c.166-.095.297-.23.391-.403.094-.174.141-.372.141-.594 0-.221-.047-.419-.14-.59-.095-.173-.226-.306-.392-.403-.167-.096-.352-.144-.555-.144-.207 0-.393.048-.557.144-.165.097-.295.23-.389.402-.094.172-.142.37-.142.591 0 .222.048.42.142.594.094.174.224.308.389.402.164.095.35.142.557.142.203 0 .388-.047.555-.142m.216-2.291c.222.124.396.299.522.524.125.226.189.483.189.771 0 .293-.064.552-.19.777-.125.226-.298.4-.518.524-.22.124-.469.186-.746.186-.237 0-.45-.049-.641-.147-.19-.098-.347-.241-.469-.43V25.7h-.394v-3.995h.378v.577c.118-.192.274-.34.468-.444.194-.103.414-.155.658-.155.274 0 .521.062.743.186M113.802 24.187c.159-.102.277-.249.354-.441v-.477h-.915c-.5 0-.749.174-.749.521 0 .17.065.305.194.402.13.099.311.147.544.147.222 0 .412-.05.572-.152m.443-2.22c.204.191.306.473.306.847v1.808h-.378v-.455c-.088.152-.219.27-.39.356-.173.085-.377.127-.614.127-.325 0-.584-.078-.777-.233-.192-.155-.288-.36-.288-.615 0-.249.09-.448.27-.6.178-.151.464-.227.856-.227h.926v-.178c0-.251-.07-.443-.21-.574-.14-.131-.346-.197-.616-.197-.185 0-.363.03-.533.092-.17.06-.316.145-.438.252l-.178-.294c.148-.126.326-.223.533-.291.207-.069.425-.103.655-.103.38 0 .673.095.876.286M118.354 21.832c.183-.1.41-.15.68-.15v.383l-.095-.006c-.307 0-.547.095-.721.283-.174.189-.26.453-.26.794v1.486h-.395v-2.918h.378v.572c.092-.196.23-.344.413-.444M123.133 24.187c.16-.102.278-.249.355-.441v-.477h-.915c-.5 0-.749.174-.749.521 0 .17.065.305.194.402.13.099.311.147.544.147.222 0 .412-.05.571-.152m.444-2.22c.203.191.306.473.306.847v1.808h-.378v-.455c-.089.152-.22.27-.391.356-.172.085-.376.127-.613.127-.326 0-.585-.078-.777-.233-.192-.155-.288-.36-.288-.615 0-.249.09-.448.269-.6.179-.151.465-.227.857-.227h.926v-.178c0-.251-.07-.443-.21-.574-.14-.131-.346-.197-.616-.197-.185 0-.363.03-.533.092-.17.06-.316.145-.438.252l-.178-.294c.148-.126.326-.223.533-.291.207-.069.425-.103.654-.103.382 0 .674.095.877.286M131.827 24.445c-.074.066-.165.117-.275.152-.109.036-.222.053-.34.053-.275 0-.485-.074-.633-.222-.148-.148-.222-.357-.222-.627v-1.764h-.522v-.333h.522v-.638h.394v.638h.887v.333h-.887v1.742c0 .174.043.306.13.397.087.09.212.136.375.136.081 0 .16-.013.236-.039.075-.026.141-.063.196-.111l.14.283zM136.13 24.16c.164-.095.293-.23.385-.403.093-.174.14-.372.14-.594 0-.221-.047-.42-.14-.593-.092-.174-.22-.308-.385-.403-.165-.094-.35-.141-.558-.141-.207 0-.393.047-.558.141-.164.095-.294.229-.388.403-.094.174-.141.372-.141.593 0 .222.047.42.141.594.094.174.224.308.388.402.165.095.35.142.558.142.207 0 .393-.047.558-.142m-1.318.3c-.225-.128-.403-.304-.533-.53-.13-.226-.194-.48-.194-.766 0-.284.065-.54.194-.765.13-.226.308-.402.533-.527.226-.126.479-.189.76-.189s.535.063.76.189c.226.125.402.301.53.527.128.225.191.48.191.765 0 .285-.063.54-.19.766-.129.226-.305.402-.53.53-.226.127-.48.191-.761.191s-.534-.064-.76-.191M141.545 24.16c.164-.095.294-.23.388-.403.094-.174.141-.372.141-.594 0-.221-.047-.42-.14-.593-.095-.174-.225-.308-.39-.403-.164-.094-.348-.141-.551-.141-.208 0-.393.047-.558.141-.164.095-.294.229-.388.403-.095.174-.142.372-.142.593 0 .222.047.42.142.594.094.174.224.308.388.402.165.095.35.142.558.142.203 0 .387-.047.552-.142zm.918-3.654v4.116h-.378v-.576c-.118.195-.274.345-.468.449-.194.103-.413.155-.658.155-.273 0-.521-.063-.743-.188-.222-.126-.396-.302-.522-.527-.126-.226-.188-.483-.188-.772 0-.288.062-.545.188-.771.126-.225.3-.4.522-.524.222-.124.47-.186.743-.186.237 0 .45.049.641.147.19.098.347.241.47.43v-1.753h.393zM147.254 24.16c.164-.095.293-.23.385-.403.093-.174.139-.372.139-.594 0-.221-.046-.42-.14-.593-.091-.174-.22-.308-.384-.403-.165-.094-.351-.141-.558-.141-.207 0-.393.047-.558.141-.164.095-.294.229-.388.403-.094.174-.142.372-.142.593 0 .222.048.42.142.594.094.174.224.308.388.402.165.095.35.142.558.142.207 0 .393-.047.558-.142m-1.318.3c-.226-.128-.404-.304-.533-.53-.13-.226-.194-.48-.194-.766 0-.284.065-.54.194-.765.13-.226.307-.402.533-.527.225-.126.479-.189.76-.189s.534.063.76.189c.226.125.402.301.53.527.127.225.191.48.191.765 0 .285-.064.54-.191.766-.128.226-.304.402-.53.53-.226.127-.479.191-.76.191s-.535-.064-.76-.191M151.026 24.548c-.216-.069-.385-.155-.508-.258l.178-.311c.122.096.276.175.46.236.185.06.378.091.577.091.267 0 .464-.042.591-.125.128-.083.192-.2.192-.352 0-.107-.035-.191-.106-.252-.07-.062-.159-.108-.266-.14-.107-.03-.25-.061-.427-.09-.237-.045-.427-.09-.572-.137-.144-.046-.267-.124-.369-.235-.101-.111-.152-.265-.152-.46 0-.245.102-.445.305-.6.203-.155.486-.233.849-.233.189 0 .377.025.566.075.188.05.344.115.466.197l-.172.316c-.24-.166-.527-.25-.86-.25-.252 0-.441.045-.569.134-.127.088-.191.205-.191.349 0 .111.036.2.108.267.072.066.162.115.27.146.106.032.254.064.443.097.233.045.42.09.56.134.14.044.261.12.36.227.1.107.15.255.15.444 0 .255-.106.458-.318.608-.213.15-.508.224-.885.224-.237 0-.464-.034-.68-.102M41 18.55c-.527-.259-.95-.622-1.273-1.09l.849-.995c.565.81 1.277 1.214 2.135 1.214.575 0 1.011-.175 1.309-.526.297-.351.446-.868.446-1.55V9.854h-3.7V8.583h5.148v6.946c0 1.132-.271 1.982-.812 2.552-.541.57-1.338.856-2.391.856-.614 0-1.185-.13-1.711-.388M55.917 11.069v7.75h-1.331v-1.17c-.283.4-.656.71-1.12.93-.462.219-.967.329-1.513.329-1.033 0-1.847-.286-2.442-.856-.595-.57-.892-1.411-.892-2.523v-4.46h1.404v4.3c0 .75.18 1.318.541 1.703.36.385.877.578 1.55.578.74 0 1.326-.224 1.755-.673.43-.448.644-1.082.644-1.901v-4.007h1.404zM65.079 11.851c.58.57.87 1.407.87 2.508v4.46h-1.404V14.52c0-.75-.18-1.316-.541-1.696-.361-.38-.878-.57-1.55-.57-.761 0-1.36.221-1.8.665-.438.444-.657 1.08-.657 1.908v3.993h-1.404v-7.751h1.345v1.17c.283-.4.665-.707 1.148-.922.483-.214 1.031-.321 1.645-.321.985 0 1.767.285 2.348.855M72.91 18.366c-.205.176-.459.31-.76.403-.303.092-.615.139-.936.139-.78 0-1.385-.21-1.814-.63-.43-.418-.643-1.018-.643-1.798v-4.256H67.44V11.07h1.317V9.372h1.404v1.697h2.223v1.155H70.16v4.198c0 .419.104.74.314.965.21.224.51.336.9.336.428 0 .794-.122 1.096-.366l.439 1.01zM79.001 17.335c.395-.229.704-.55.929-.965.224-.414.336-.89.336-1.426 0-.536-.112-1.011-.336-1.425-.225-.415-.534-.734-.929-.959-.395-.224-.841-.336-1.338-.336-.497 0-.944.112-1.338.336-.395.225-.707.544-.936.959-.23.414-.344.89-.344 1.425 0 .537.115 1.012.344 1.426.229.415.54.736.936.965.394.23.84.344 1.338.344.497 0 .943-.114 1.338-.344m-3.415 1.06c-.614-.34-1.094-.81-1.44-1.41-.347-.6-.52-1.28-.52-2.04 0-.761.173-1.441.52-2.04.346-.6.826-1.068 1.44-1.405.614-.336 1.307-.504 2.077-.504s1.46.168 2.07.504c.608.337 1.086.805 1.432 1.404.347.6.52 1.28.52 2.04s-.173 1.44-.52 2.04c-.346.6-.824 1.07-1.433 1.412-.61.341-1.3.512-2.07.512-.77 0-1.462-.17-2.076-.512M84.024 18.652c-.585-.17-1.043-.388-1.374-.651l.585-1.112c.34.244.755.44 1.243.585.487.147.98.22 1.477.22 1.228 0 1.842-.351 1.842-1.053 0-.234-.082-.42-.248-.556-.166-.136-.373-.236-.622-.3-.248-.063-.602-.134-1.06-.212-.624-.097-1.133-.21-1.528-.336-.395-.127-.734-.341-1.017-.644-.282-.302-.424-.726-.424-1.272 0-.702.293-1.265.878-1.69.585-.423 1.37-.635 2.354-.635.517 0 1.033.063 1.55.19.517.127.941.297 1.273.512l-.6 1.111c-.633-.41-1.38-.614-2.237-.614-.595 0-1.048.098-1.36.292-.313.196-.468.454-.468.776 0 .253.087.453.263.6.175.145.392.253.65.32.259.07.622.147 1.09.235.624.107 1.129.222 1.514.343.385.122.714.33.987.622.273.293.41.702.41 1.228 0 .703-.3 1.26-.9 1.675-.6.415-1.416.622-2.45.622-.633 0-1.242-.086-1.828-.256"/>
        <path fill="#B32967" d="M97.011 18.82L95.592 16.743 94.071 18.82 91.059 18.82 94.071 14.857 91.147 10.893 94.276 10.893 95.68 12.897 97.143 10.893 100.082 10.893 97.157 14.754 100.184 18.82z"/>
        <path fill="#474345" d="M112.63 18.82L112.615 11.361 108.915 17.577 108.242 17.577 104.542 11.405 104.542 18.82 103.138 18.82 103.138 8.583 104.338 8.583 108.608 15.778 112.82 8.583 114.019 8.583 114.033 18.82zM120.95 8.042h1.785l-2.457 1.9h-1.316l1.989-1.9zm-2.566 4.753c-.453.409-.72.945-.797 1.608h4.972c-.078-.653-.343-1.187-.797-1.601-.453-.414-1.016-.622-1.689-.622s-1.236.205-1.689.615zm5.492 2.617h-6.289c.088.683.388 1.231.9 1.646.511.414 1.147.621 1.908.621.926 0 1.672-.312 2.238-.936l.775.907c-.351.41-.788.722-1.31.936-.521.214-1.104.322-1.747.322-.819 0-1.545-.169-2.179-.505-.634-.336-1.124-.807-1.47-1.411-.346-.605-.52-1.287-.52-2.048 0-.75.17-1.428.506-2.032.336-.605.799-1.075 1.39-1.412.589-.336 1.254-.504 1.995-.504.741 0 1.402.168 1.982.504.58.337 1.033.807 1.36 1.412.326.604.49 1.296.49 2.076 0 .108-.01.249-.03.424zM130.574 18.82L128.336 15.851 126.069 18.82 124.505 18.82 127.561 14.857 124.651 11.069 126.216 11.069 128.351 13.862 130.471 11.069 132.007 11.069 129.082 14.857 132.168 18.82zM133.703 18.82h1.404v-7.751h-1.404v7.75zm.022-9.506c-.18-.176-.27-.39-.27-.644 0-.253.09-.47.27-.65.18-.18.407-.27.68-.27.273 0 .5.085.68.255.18.17.27.383.27.636 0 .263-.09.485-.27.666-.18.18-.407.27-.68.27-.273 0-.5-.088-.68-.263zM139.048 18.396c-.619-.341-1.104-.812-1.455-1.412-.351-.6-.526-1.28-.526-2.04s.175-1.44.526-2.04c.351-.6.836-1.068 1.455-1.404.62-.336 1.324-.504 2.113-.504.702 0 1.329.141 1.88.424.55.283.977.692 1.28 1.228l-1.068.688c-.244-.37-.546-.649-.907-.834-.36-.185-.76-.278-1.2-.278-.506 0-.962.112-1.367.337-.404.224-.721.543-.95.958-.23.414-.344.89-.344 1.425 0 .547.115 1.027.344 1.44.229.415.546.735.95.959.405.224.86.336 1.368.336.438 0 .838-.092 1.2-.278.36-.185.662-.463.906-.833l1.067.672c-.302.537-.729.949-1.28 1.236-.55.288-1.177.432-1.879.432-.79 0-1.494-.17-2.113-.512M150.675 17.335c.394-.229.704-.55.928-.965.225-.414.337-.89.337-1.426 0-.536-.112-1.011-.337-1.425-.224-.415-.534-.734-.928-.959-.395-.224-.841-.336-1.339-.336-.497 0-.943.112-1.338.336-.394.225-.707.544-.936.959-.229.414-.343.89-.343 1.425 0 .537.114 1.012.343 1.426.23.415.542.736.936.965.395.23.841.344 1.338.344.498 0 .944-.114 1.339-.344m-3.415 1.06c-.615-.34-1.095-.81-1.44-1.41-.347-.6-.52-1.28-.52-2.04 0-.761.173-1.441.52-2.04.345-.6.825-1.068 1.44-1.405.614-.336 1.306-.504 2.076-.504s1.46.168 2.07.504c.61.337 1.087.805 1.433 1.404.346.6.52 1.28.52 2.04s-.174 1.44-.52 2.04c-.346.6-.824 1.07-1.433 1.412-.61.341-1.3.512-2.07.512-.77 0-1.462-.17-2.076-.512"/>
        <path fill="#B32967" d="M30.664 19.736c.795.782 1.4 1.416 2.154 2.188.55.564 1.453 1.952 2.56.9.644-1.217-1.101-2.299-2.872-4.184l-3.703-3.805c-5.099-5.478 2.691-7.41 2.085-9.554-.85-1.585-1.85-.394-2.523.293-1.472 1.504-2.936 3.544-5.636 2.607-2.03-.705-7.664-8.11-9.019-8.085-.547.01-1.803.673-.126 2.372 5.726 5.804 11.384 11.579 17.08 17.268"/>
        <path fill="#38639D" d="M.977 12.995c-2.448.718.51 2.936 2.097 4.558l8.535 8.606c1.031 1.042 3.356 3.64 4.384 4.315.462-.269.437-.268.747-.654.39-.282.45-.396.727-.658-.655-1.468-2.613-1.963-2.991-4.05-.484-2.675 1.82-4.265 3.95-6.457 1.333-1.371 4.204-3.9 5.099-5.25l-1.494-1.401-4.86 4.903c-2.47 2.57-5.23 6.573-8.77 2.99-.852-.862-1.589-1.597-2.436-2.459-.766-.778-4.038-4.505-4.988-4.443"/>
        <path fill="#97C03A" d="M17.053 30.102l-4.059 4.03c-.391.672-.125 1.456.532 1.7.958.354 2.474-1.597 2.99-2.105 4.569-4.495 9.109-9.326 13.643-13.686-.153-.5-.98-1.318-1.436-1.554-1.358.905-1.972 2.968-4.57 2.955-2.664-.013-3.076-2.209-4.57-2.973-.54.34-1.163.962-1.451 1.537 1.66 1.61 3.509 2.865 2.813 5.579-.391 1.526-2.939 3.624-3.892 4.517"/>
        <path fill="#D59D43" d="M7.454 9.316C9.616 13.11 6.24 14.32 5.219 16.08l1.47 1.382c.834-.682 1.857-1.812 2.676-2.646 1.58-1.609 7.293-7.007 7.833-7.948l-1.314-1.44c-1.752.835-2.452 3.691-5.671 2.875-2.122-.539-3.33-3.682-4.83-3.491l-.699.242c-.437 1.398.267 1.753.938 2.436.656.667 1.095 1.111 1.832 1.825"/>
        <path fill="#B32967" d="M10.823 26.346c-.341-.538-1-1.226-1.562-1.49-.59.816-1.922 2.02-2.704 2.828-.46.474-2.65 2.218-1.675 3.245.919.967 2.206-.69 3.2-1.72.817-.85 2.121-1.96 2.741-2.863"/>
        <path fill="#D59D43" d="M24.658 26.473c.912.99 1.843 1.853 2.77 2.802.54.552 2.202 2.84 3.23 1.782 1.041-1.074-1.128-2.679-1.646-3.206-.689-.7-2.2-2.417-2.9-2.805l-1.454 1.427z"/>
        <path fill="#97C03A" d="M25.936 18.86c1.276-2.543-2.727-4.118-3.756-1.836-.564 1.251.147 2.378 1.053 2.735 1.114.438 2.347-.189 2.703-.898"/>
        <path fill="#D59D43" d="M13.09 6.097c1.073-2.468-2.9-3.807-3.833-1.512C8.193 7.2 12.037 8.52 13.09 6.097"/>
        <path fill="#6EB0BF" d="M29.843 22.52c-2.585.68-1.698 4.36.916 3.89 2.728-.49 1.763-4.595-.916-3.89M23.59 28.964c-2.94.875-1.465 4.567 1.113 3.817 2.45-.713 1.383-4.56-1.112-3.817"/>
        <path fill="#B32967" d="M22.057 5.608c.38 2.384 4.384 2.106 4.08-.642-.272-2.464-4.526-2.152-4.08.642"/>
        <path fill="#6EB0BF" d="M10.838 28.796c-1.29.51-1.71 1.513-1.237 2.64.336.798 1.406 1.515 2.604 1.086 2.498-.896 1.163-4.727-1.367-3.726M3.206 12.323c.451 1.57 2.568 2.013 3.633.622 1.1-1.438-.17-3.391-1.945-3.137-1.228.242-1.996 1.074-1.688 2.515"/>
        <path fill="#38639D" d="M9.165 18.345c.408 2.31 4.533 2.004 4.052-.792-.405-2.362-4.549-2.013-4.052.792"/>
        <path fill="#6EB0BF" d="M15.576 24.876c.268 2.389 4.344 2.238 4.107-.458-.222-2.52-4.415-2.288-4.107.458M15.56 11.976c.322 2.344 4.456 2.142 4.078-.65-.332-2.449-4.45-2.058-4.078.65M28.483 12.303c.664 2.11 4.748 1.543 3.942-1.25-.639-2.215-4.826-1.56-3.942 1.25M4.64 22.422c-2.764.95-1.329 4.45 1.122 3.808 2.452-.642 1.488-4.704-1.123-3.808"/>
        <path fill="#97C03A" d="M15.693 17.5l1.424-1.602c-1.058-.817-3.152-3.463-4.077-3.902l-1.376 1.483 4.029 4.02zM32.477 17.67c.633-.49 1.368-1.314 1.974-1.922.411-.414 1.928-1.549.858-2.53-.99-.908-1.977.578-2.396.99-.738.727-1.495 1.18-1.953 2.014.325.566.945 1.149 1.517 1.448"/>
        <path fill="#38639D" d="M18.24 32.714c.5.761 1.19 1.295 1.85 1.944.373.367 1.453 1.833 2.372.94.965-.937-.555-2.027-.913-2.401-.537-.561-1.366-1.588-1.966-1.897-.628.478-1.05.813-1.343 1.414"/>
        <path fill="#D59D43" d="M4.448 19.592c-.633-.442-.86-.73-1.349-1.254-.729.38-1.443 1.28-1.942 1.82-.361.393-1.793 1.52-.829 2.435.878.834 1.828-.47 2.226-.875.549-.556 1.574-1.402 1.894-2.126M19.42 4.556c.712-.561 1.286-1.336 1.872-1.975.377-.41 1.95-1.588.769-2.411-.945-.659-1.916.784-2.318 1.19-.5.506-1.515 1.363-1.774 1.96l1.451 1.236z"/>
    </g>
</svg>
